PathFileType	4	(X / Y / Z)	Demo_152250_11_September_2019	Demo_152250_11_September_2019.trc
DataRate	CameraRate	NumFrames	NumMarkers	Units	OrigDataRate	OrigDataStartFrame	OrigNumFrames
50	50	17	25	m	50	871	2190
Frame#	Time		SpineBase		SpineMid		Neck		Head		ShoulderLeft		ElbowLeft		WristLeft		HandLeft		ShoulderRight		ElbowRight		WristRight		HandRight		HipLeft		KneeLeft		AnkleLeft		FootLeft		HipRight		KneeRight		AnkleRight		FootRight		SpineShoulder		HandTipLeft		LeftThumb		HandTipRight		ThumbRight		
X1	Y1	Z1	X2	Y2	Z2	X3	Y3	Z3	X4	Y4	Z4	X5	Y5	Z5	X6	Y6	Z6	X7	Y7	Z7	X8	Y8	Z8	X9	Y9	Z9	X10	Y10	Z10	X11	Y11	Z11	X12	Y12	Z12	X13	Y13	Z13	X14	Y14	Z14	X15	Y15	Z15	X16	Y16	Z16	X17	Y17	Z17	X18	Y18	Z18	X19	Y19	Z19	X20	Y20	Z20	X21	Y21	Z21	X22	Y22	Z22	X23	Y23	Z23	X24	Y24	Z24	X25	Y25	Z25	
822	39.562	0.083	0.729	1.530	0.084	1.020	1.502	0.084	1.299	1.458	0.078	1.445	1.429	-0.048	1.203	1.407	-0.057	1.042	1.313	0.039	1.188	1.281	0.042	1.238	1.305	0.255	1.205	1.479	0.477	1.216	1.475	0.591	1.338	1.429	0.677	1.414	1.402	0.006	0.740	1.480	-0.083	0.444	1.508	-0.077	0.270	1.567	-0.052	0.260	1.535	0.157	0.730	1.512	0.133	0.428	1.557	0.113	0.264	1.621	0.104	0.254	1.593	0.084	1.231	1.471	0.080	1.311	1.300	0.047	1.245	1.329	0.740	1.472	1.393	0.665	1.464	1.377
823	39.579	0.083	0.730	1.528	0.083	1.020	1.499	0.082	1.300	1.455	0.078	1.445	1.428	-0.049	1.203	1.403	-0.057	1.042	1.308	0.039	1.188	1.279	0.041	1.239	1.303	0.256	1.206	1.479	0.470	1.209	1.474	0.600	1.297	1.434	0.668	1.351	1.414	0.006	0.740	1.477	-0.084	0.445	1.509	-0.076	0.271	1.568	-0.052	0.260	1.535	0.156	0.730	1.510	0.131	0.428	1.555	0.112	0.266	1.620	0.104	0.255	1.591	0.083	1.232	1.468	0.080	1.312	1.300	0.051	1.230	1.335	0.731	1.406	1.408	0.670	1.391	1.379
824	39.596	0.083	0.730	1.528	0.083	1.020	1.499	0.082	1.300	1.455	0.078	1.445	1.428	-0.049	1.203	1.403	-0.057	1.042	1.308	0.039	1.188	1.279	0.041	1.239	1.303	0.256	1.206	1.479	0.470	1.209	1.474	0.600	1.297	1.434	0.668	1.351	1.414	0.006	0.740	1.477	-0.084	0.445	1.509	-0.076	0.271	1.568	-0.052	0.260	1.535	0.156	0.730	1.510	0.131	0.428	1.555	0.112	0.266	1.620	0.104	0.255	1.591	0.083	1.232	1.468	0.080	1.312	1.300	0.051	1.230	1.335	0.731	1.406	1.408	0.670	1.391	1.379
825	39.612	0.082	0.730	1.525	0.082	1.020	1.495	0.080	1.300	1.451	0.079	1.445	1.427	-0.050	1.203	1.398	-0.058	1.042	1.304	0.038	1.189	1.278	0.040	1.239	1.301	0.257	1.207	1.478	0.453	1.169	1.478	0.605	1.227	1.445	0.663	1.262	1.432	0.006	0.740	1.474	-0.085	0.446	1.509	-0.076	0.272	1.568	-0.053	0.261	1.534	0.156	0.730	1.508	0.129	0.428	1.553	0.111	0.267	1.618	0.104	0.256	1.589	0.081	1.232	1.465	0.080	1.312	1.299	0.053	1.222	1.338	0.723	1.310	1.420	0.684	1.299	1.384
826	39.629	0.082	0.730	1.525	0.082	1.020	1.495	0.080	1.300	1.451	0.079	1.445	1.427	-0.050	1.203	1.398	-0.058	1.042	1.304	0.038	1.189	1.278	0.040	1.239	1.301	0.257	1.207	1.478	0.453	1.169	1.478	0.605	1.227	1.445	0.663	1.262	1.432	0.006	0.740	1.474	-0.085	0.446	1.509	-0.076	0.272	1.568	-0.053	0.261	1.534	0.156	0.730	1.508	0.129	0.428	1.553	0.111	0.267	1.618	0.104	0.256	1.589	0.081	1.232	1.465	0.080	1.312	1.299	0.053	1.222	1.338	0.723	1.310	1.420	0.684	1.299	1.384
827	39.646	0.082	0.729	1.522	0.081	1.020	1.492	0.078	1.301	1.448	0.079	1.445	1.425	-0.052	1.202	1.393	-0.058	1.041	1.300	0.038	1.189	1.277	0.039	1.238	1.298	0.257	1.207	1.478	0.442	1.123	1.482	0.612	1.143	1.458	0.677	1.165	1.451	0.006	0.739	1.471	-0.087	0.447	1.510	-0.077	0.272	1.568	-0.054	0.262	1.533	0.155	0.730	1.506	0.128	0.428	1.552	0.110	0.269	1.617	0.104	0.257	1.587	0.079	1.232	1.461	0.080	1.312	1.300	0.055	1.213	1.342	0.743	1.196	1.443	0.705	1.191	1.398
828	39.663	0.082	0.729	1.522	0.081	1.020	1.492	0.078	1.301	1.448	0.079	1.445	1.425	-0.052	1.202	1.393	-0.058	1.041	1.300	0.038	1.189	1.277	0.039	1.238	1.298	0.257	1.207	1.478	0.442	1.123	1.482	0.612	1.143	1.458	0.677	1.165	1.451	0.006	0.739	1.471	-0.087	0.447	1.510	-0.077	0.272	1.568	-0.054	0.262	1.533	0.155	0.730	1.506	0.128	0.428	1.552	0.110	0.269	1.617	0.104	0.257	1.587	0.079	1.232	1.461	0.080	1.312	1.300	0.055	1.213	1.342	0.743	1.196	1.443	0.705	1.191	1.398
829	39.679	0.081	0.727	1.518	0.080	1.019	1.488	0.077	1.300	1.444	0.079	1.445	1.422	-0.053	1.201	1.388	-0.059	1.039	1.297	0.036	1.188	1.276	0.037	1.238	1.295	0.256	1.205	1.476	0.415	1.066	1.490	0.602	1.052	1.476	0.658	1.051	1.478	0.005	0.738	1.468	-0.088	0.447	1.510	-0.077	0.273	1.568	-0.054	0.263	1.532	0.154	0.729	1.503	0.127	0.428	1.551	0.109	0.271	1.615	0.104	0.259	1.585	0.078	1.232	1.457	0.079	1.312	1.300	0.056	1.210	1.343	0.723	1.061	1.467	0.685	1.054	1.434
830	39.696	0.081	0.727	1.518	0.080	1.019	1.488	0.077	1.300	1.444	0.079	1.445	1.422	-0.053	1.201	1.388	-0.059	1.039	1.297	0.036	1.188	1.276	0.037	1.238	1.295	0.256	1.205	1.476	0.415	1.066	1.490	0.602	1.052	1.476	0.658	1.051	1.478	0.005	0.738	1.468	-0.088	0.447	1.510	-0.077	0.273	1.568	-0.054	0.263	1.532	0.154	0.729	1.503	0.127	0.428	1.551	0.109	0.271	1.615	0.104	0.259	1.585	0.078	1.232	1.457	0.079	1.312	1.300	0.056	1.210	1.343	0.723	1.061	1.467	0.685	1.054	1.434
831	39.713	0.080	0.726	1.515	0.078	1.018	1.485	0.075	1.300	1.440	0.078	1.445	1.419	-0.055	1.199	1.383	-0.059	1.037	1.294	0.035	1.188	1.275	0.035	1.236	1.291	0.254	1.202	1.472	0.390	1.018	1.497	0.571	0.953	1.491	0.616	0.935	1.504	0.005	0.736	1.465	-0.090	0.446	1.510	-0.078	0.274	1.568	-0.055	0.263	1.531	0.152	0.727	1.500	0.126	0.427	1.550	0.109	0.273	1.614	0.104	0.260	1.583	0.076	1.231	1.453	0.078	1.311	1.299	0.057	1.206	1.343	0.693	0.915	1.503	0.668	0.911	1.465
832	39.729	0.080	0.726	1.515	0.078	1.018	1.485	0.075	1.300	1.440	0.078	1.445	1.419	-0.055	1.199	1.383	-0.059	1.037	1.294	0.035	1.188	1.275	0.035	1.236	1.291	0.254	1.202	1.472	0.390	1.018	1.497	0.571	0.953	1.491	0.616	0.935	1.504	0.005	0.736	1.465	-0.090	0.446	1.510	-0.078	0.274	1.568	-0.055	0.263	1.531	0.152	0.727	1.500	0.126	0.427	1.550	0.109	0.273	1.614	0.104	0.260	1.583	0.076	1.231	1.453	0.078	1.311	1.299	0.057	1.206	1.343	0.693	0.915	1.503	0.668	0.911	1.465
833	39.746	0.079	0.724	1.512	0.077	1.017	1.482	0.073	1.299	1.436	0.077	1.444	1.415	-0.056	1.198	1.379	-0.059	1.035	1.291	0.034	1.186	1.274	0.033	1.233	1.286	0.248	1.196	1.467	0.364	0.980	1.503	0.525	0.865	1.499	0.547	0.839	1.527	0.004	0.734	1.462	-0.092	0.445	1.509	-0.079	0.274	1.567	-0.055	0.264	1.531	0.151	0.726	1.496	0.126	0.427	1.550	0.108	0.274	1.613	0.104	0.261	1.582	0.074	1.231	1.450	0.077	1.309	1.297	0.057	1.202	1.344	0.604	0.802	1.542	0.576	0.820	1.501
834	39.763	0.079	0.724	1.512	0.077	1.017	1.482	0.073	1.299	1.436	0.077	1.444	1.415	-0.056	1.198	1.379	-0.059	1.035	1.291	0.034	1.186	1.274	0.033	1.233	1.286	0.248	1.196	1.467	0.364	0.980	1.503	0.525	0.865	1.499	0.547	0.839	1.527	0.004	0.734	1.462	-0.092	0.445	1.509	-0.079	0.274	1.567	-0.055	0.264	1.531	0.151	0.726	1.496	0.126	0.427	1.550	0.108	0.274	1.613	0.104	0.261	1.582	0.074	1.231	1.450	0.077	1.309	1.297	0.057	1.202	1.344	0.604	0.802	1.542	0.576	0.820	1.501
835	39.779	0.078	0.722	1.510	0.075	1.016	1.479	0.072	1.299	1.433	0.076	1.444	1.411	-0.058	1.196	1.375	-0.060	1.033	1.289	0.033	1.186	1.273	0.030	1.229	1.282	0.242	1.190	1.460	0.342	0.957	1.502	0.453	0.803	1.514	0.475	0.761	1.551	0.003	0.732	1.460	-0.094	0.444	1.508	-0.081	0.274	1.567	-0.055	0.264	1.531	0.150	0.724	1.493	0.126	0.426	1.549	0.108	0.275	1.612	0.104	0.262	1.580	0.073	1.230	1.447	0.075	1.307	1.296	0.057	1.196	1.343	0.516	0.673	1.575	0.501	0.696	1.544
836	39.796	0.078	0.722	1.510	0.075	1.016	1.479	0.072	1.299	1.433	0.076	1.444	1.411	-0.058	1.196	1.375	-0.060	1.033	1.289	0.033	1.186	1.273	0.030	1.229	1.282	0.242	1.190	1.460	0.342	0.957	1.502	0.453	0.803	1.514	0.475	0.761	1.551	0.003	0.732	1.460	-0.094	0.444	1.508	-0.081	0.274	1.567	-0.055	0.264	1.531	0.150	0.724	1.493	0.126	0.426	1.549	0.108	0.275	1.612	0.104	0.262	1.580	0.073	1.230	1.447	0.075	1.307	1.296	0.057	1.196	1.343	0.516	0.673	1.575	0.501	0.696	1.544
837	39.813	0.077	0.720	1.508	0.074	1.015	1.477	0.070	1.299	1.431	0.075	1.444	1.408	-0.058	1.195	1.373	-0.060	1.032	1.287	0.032	1.185	1.272	0.028	1.226	1.279	0.237	1.186	1.454	0.302	0.934	1.493	0.374	0.768	1.535	0.392	0.713	1.564	0.002	0.731	1.459	-0.096	0.443	1.507	-0.083	0.274	1.566	-0.055	0.264	1.531	0.149	0.722	1.491	0.126	0.425	1.549	0.108	0.276	1.611	0.104	0.263	1.579	0.072	1.229	1.444	0.073	1.305	1.295	0.057	1.191	1.342	0.406	0.597	1.599	0.401	0.627	1.561
838	39.830	0.077	0.720	1.508	0.074	1.015	1.477	0.070	1.299	1.431	0.075	1.444	1.408	-0.058	1.195	1.373	-0.060	1.032	1.287	0.032	1.185	1.272	0.028	1.226	1.279	0.237	1.186	1.454	0.302	0.934	1.493	0.374	0.768	1.535	0.392	0.713	1.564	0.002	0.731	1.459	-0.096	0.443	1.507	-0.083	0.274	1.566	-0.055	0.264	1.531	0.149	0.722	1.491	0.126	0.425	1.549	0.108	0.276	1.611	0.104	0.263	1.579	0.072	1.229	1.444	0.073	1.305	1.295	0.057	1.191	1.342	0.406	0.597	1.599	0.401	0.627	1.561
